<svg xmlns="http://www.w3.org/2000/svg" viewBox="0 0 70 70" style="enable-background:new 0 0 70 70" xml:space="preserve"><path style="fill:#141414" d="m64.4 18.9-.4-.8c-2.3-4.6-8.3-9.3-15.5-12-9.1-3.4-18.7-3.2-26.3.5C19.6 7.8 7.6 18.1 3.6 30c-1.9 5.7-1.7 10.9.6 15.5 7.1 14 16.2 20.9 28 20.9 4.9 0 10.4-1.2 16.3-3.6.3-.1.7-.3 1-.4 7.4-3.2 12.8-8.6 15.7-15.6 3.5-8.2 3.2-18.4-.8-27.9zm-16.5 42c-19 7.7-31.4 2.7-41.2-16.7-2-4-2.2-9.1-.4-14.3C10 18.9 20.7 9.5 23.1 8.4c.3-.1.6-.3.9-.4 6.9-3 15.6-3 23.8 0 7 2.6 12.7 8.8 14.6 13.3 4.1 9.8 4.4 19.2.8 25.3-3.3 5.5-7.5 11.2-15.3 14.3z"/></svg>