<svg xmlns="http://www.w3.org/2000/svg" viewBox="0 0 80 231.5" style="enable-background:new 0 0 80 231.5" xml:space="preserve"><path style="fill:#141414" d="M18 224.3v-5.7c0-5.3 4-9.3 28.3-9.3s28.3 4.1 28.3 9.3v5.7H18zm51.9-5.7c0-2-1.6-3.6-23.5-3.6s-23.5 1.6-23.5 3.6v.4h47v-.4zM18 206.5v-12.1h4.9v6.9h20.7v-5.7h4.9v5.7H70v-6.9h4.9v12.1H18zm-4.4-2.8L5.5 198v-2.4h5.7l3.2 6.5v1.6h-.8zM18 192.7v-5.3c0-4.9 4-8.9 17-8.9s17 4 17 8.9h22.7v5.3H18zm29.2-5.6c0-1.2-1.6-2.8-12.1-2.8S23 185.9 23 187.1v.4h24.3v-.4zM18 176.1v-5.3h51.8V164h4.9v12.1H18z"/><path style="fill:#141414" d="M18 160.7v-8.9l56.7-3.6v5.3l-12.5.5v4.5l12.6.6v5.3L18 160.7zm39.3-6.4-32.8 1.6v.8l32.8 1.6v-4zM52.1 132.8s3.2-1.2 9.3-1.2c10.9 0 14.2 3.2 14.2 6.9 0 4.9-3.6 8.5-29.2 8.5-25.5 0-29.2-3.6-29.2-8.5 0-3.6 3.2-6.9 14.2-6.9 6.1 0 9.3 1.2 9.3 1.2v4.9s-4.5-.8-9.7-.8c-8.5 0-9.3.8-9.3 1.6 0 1.2 1.6 2.8 24.7 2.8 23.1 0 24.7-1.6 24.7-2.8 0-.8-.8-1.6-9.3-1.6-5.3 0-9.7.8-9.7.8v-4.9zM18 128.7v-12.1h4.9v6.9h20.7v-5.7h4.9v5.7H70v-6.9h4.9v12.1H18zm-4.4-2.8-8.1-5.7v-2.4h5.7l3.2 6.5v1.6h-.8zM18 106.9v-7.3l22.3-2.8v-.4L18 93.5v-7.3h56.7v5.7l-48.6-2v.8l26.7 4v3.6l-26.7 4v.8l48.6-2v5.7H18zM18 81v-9l56.7-3.6v5.3l-12.6.6v4.5l12.6.6v5.3L18 81zm39.3-6.5-32.8 1.6v.8l32.8 1.6v-4zM18 66.8v-5.3h56.7v5.3H18zM55.3 53.4s3.2.4 6.5.4c8.1 0 9.3-1.2 9.3-2s-1.2-2-7.7-2c-13.4 0-19 9.3-33.2 9.3-9.3 0-13-3.6-13-7.3s3.6-7.3 13-7.3c4 0 6.5.8 6.5.8v4.9s-2.4-.4-5.7-.4c-8.1 0-9.3 1.2-9.3 2s1.2 2 7.7 2c13.4 0 19-9.3 33.2-9.3 9.3 0 13 3.6 13 7.3s-3.6 7.3-13 7.3c-4 0-7.3-.8-7.3-.8v-4.9zM46.4 42.9c-25.5 0-29.2-3.6-29.2-8.1s3.6-8.1 29.2-8.1c25.5 0 29.2 3.6 29.2 8.1 0 4.4-3.7 8.1-29.2 8.1zm0-10.5c-23.5 0-24.7 1.2-24.7 2.4s1.2 2.4 24.7 2.4 24.7-1.2 24.7-2.4-1.2-2.4-24.7-2.4zM18 23.8v-6.5l48.6-5.7v-.8L18 13.7V8.1h56.7v6.5l-48.6 5.7v.7l48.6-2.8v5.7H18z"/></svg>