<svg xmlns="http://www.w3.org/2000/svg" viewBox="0 0 222 77" style="enable-background:new 0 0 222 77" xml:space="preserve"><path style="fill:#141414" d="M3.4 14.6h5.7c5.3 0 9.3 4 9.3 28.3s-4.1 28.3-9.3 28.3H3.4V14.6zm5.7 51.9c2 0 3.6-1.6 3.6-23.5s-1.6-23.5-3.6-23.5h-.4v47h.4zM21.2 14.6h12.1v4.9h-6.9v20.7h5.7V45h-5.7v21.5h6.9v4.9H21.2V14.6zm2.8-4.4 5.7-8.1h2.4v5.7L25.7 11H24v-.8zM35 14.6h5.3c4.9 0 8.9 4 8.9 17s-4 17-8.9 17v22.7H35V14.6zm5.7 29.2c1.2 0 2.8-1.6 2.8-12.1s-1.6-12.1-2.8-12.1h-.4v24.3h.4zM51.6 14.6h5.3v51.8h6.9v4.9H51.6V14.6z"/><path style="fill:#141414" d="M67 14.6h8.9l3.6 56.7h-5.3l-.6-12.6h-4.5l-.6 12.6h-5.3L67 14.6zm6.5 39.3-1.6-32.8H71l-1.6 32.8h4.1zM94.9 48.6s1.2 3.2 1.2 9.3c0 10.9-3.2 14.2-6.9 14.2-4.9 0-8.5-3.6-8.5-29.2 0-25.5 3.6-29.2 8.5-29.2 3.6 0 6.9 3.2 6.9 14.2 0 6.1-1.2 9.3-1.2 9.3H90s.8-4.5.8-9.7c0-8.5-.8-9.3-1.6-9.3-1.2 0-2.8 1.6-2.8 24.7 0 23.1 1.6 24.7 2.8 24.7.8 0 1.6-.8 1.6-9.3 0-5.3-.8-9.7-.8-9.7h4.9zM99 14.6h12.1v4.9h-6.9v20.7h5.7V45h-5.7v21.5h6.9v4.9H99V14.6zm2.8-4.4 5.7-8.1h2.4v5.7l-6.5 3.2h-1.6v-.8zM120.8 14.6h7.3l2.8 22.3h.4l2.8-22.3h7.3v56.7h-5.7l2-48.6h-.7l-4 26.7h-3.6l-4-26.7h-.8l2 48.6h-5.7V14.6zM146.8 14.6h8.9l3.6 56.7H154l-.6-12.6h-4.5l-.6 12.6H143l3.8-56.7zm6.4 39.3-1.6-32.8h-.8l-1.6 32.8h4zM160.9 14.6h5.3v56.7h-5.3V14.6zM174.3 51.9s-.4 3.2-.4 6.5c0 8.1 1.2 9.3 2 9.3s2-1.2 2-7.7c0-13.4-9.3-19-9.3-33.2 0-9.3 3.6-13 7.3-13s7.3 3.6 7.3 13c0 4-.8 6.5-.8 6.5h-4.9s.4-2.4.4-5.7c0-8.1-1.2-9.3-2-9.3s-2 1.2-2 7.7c0 13.4 9.3 19 9.3 33.2 0 9.3-3.6 13-7.3 13s-7.3-3.6-7.3-13c0-4 .8-7.3.8-7.3h4.9zM184.8 43c0-25.5 3.6-29.2 8.1-29.2S201 17.4 201 43c0 25.5-3.6 29.2-8.1 29.2-4.4-.1-8.1-3.7-8.1-29.2zm10.6 0c0-23.5-1.2-24.7-2.4-24.7s-2.4 1.2-2.4 24.7 1.2 24.7 2.4 24.7 2.4-1.2 2.4-24.7zM203.9 14.6h6.5l5.7 48.6h.8L214 14.6h5.7v56.7h-6.5l-5.7-48.6h-.8l2.8 48.6h-5.7V14.6z"/></svg>