<svg xmlns="http://www.w3.org/2000/svg" viewBox="0 0 80 80" style="enable-background:new 0 0 80 80" xml:space="preserve"><path style="fill:#dbcab8" d="M66.7 37.8c-.2.1-.3.2-.5.3-7.9-.3-26.2-.7-54.8-1.3-2-2-3.1-3.3-3.5-3.8-.3-.6-.5-1.4-.4-2.4-.1-.2-.9-1.2-2.4-3-1.5-1.9-2.7-3.3-3.7-4.2 2-1.2 3.1-1.8 3.3-1.9 8.5-2.4 17.3-3.7 26.6-4 4.1-.1 10.4 0 18.7.2 4.6 0 8.9.6 12.7 1.8.3 2.3 1.1 5.4 2.4 9.3 1.3 3.9 2.1 6.6 2.3 8.1-.3.5-.5.8-.7.9zm4.5 6.6c.3.5 1.4 2.8 3.4 7s3.3 7.6 4 10.1L76 62c-7.9.1-14.7.2-20.6.3-2.4.1-5.9.2-10.4.2h-8.4c-1.5 0-2.7.1-3.6.2-5.4.4-9.1-1.4-10.9-5.3.4-.4 1.1-1.3 2.3-2.6.2-.1.3-.3.3-.5l.5-.3c-.2.1-.3.2-.4.4-.1.2-.2.3-.4.4-.4-2.1-1.6-3.1-3.6-3-.2.1-1.2.2-3 .2.3-2.7.5-4.2.6-4.4 4.3-2 12.8-3.5 25.5-4.2 12.7-.9 21.8-.5 27.3 1z"/></svg>