<svg xmlns="http://www.w3.org/2000/svg" viewBox="0 0 100 100" style="enable-background:new 0 0 100 100" xml:space="preserve"><path style="fill:none;stroke:#000" d="M61.8 14.5c0 .3 0 .5.1.8C56.6 25.1 44.8 48 26.4 84c-3.7 1.3-6.1 2-7 2-.9.1-2-.2-3.3-.9-.3 0-2 .4-5.3 1.2-3.3.8-5.8 1.4-7.5 2.1-.2-3.4-.4-5.2-.4-5.4 2.2-12.2 5.9-24.3 11.2-36.2 2.4-5.3 6.3-13.1 11.7-23.5 2.9-5.8 6.3-10.8 10.1-15 3.2 1.1 7.6 2 13.3 2.7 5.7.7 9.6 1.4 11.7 2 .5.8.8 1.3.9 1.5zm11-1.6c.8-.1 4.4-.1 11 0 6.5 0 11.6.4 15.3 1.2l-.9 3.5c-4.6 10.1-8.8 18.8-12.3 26.3-1.3 3.2-3.4 7.6-6.1 13.3-2.8 5.7-4.5 9.2-5.2 10.6-.9 1.9-1.5 3.4-2 4.8-2.8 7.1-7.3 10.7-13.5 10.6-.3-.8-.9-2.2-1.9-4.5 0-.2-.2-.5-.4-.7 0 0-4.4.8-5.5 3.5 0 .3-.5 1.6-1.6 4-3.2-2.1-5-3.2-5.2-3.5 0-6.7 3.5-18.3 10.3-35 6.8-16.7 12.8-28 18-34.1z"/></svg>