<svg xmlns="http://www.w3.org/2000/svg" viewBox="0 0 140 48" style="enable-background:new 0 0 140 48" xml:space="preserve"><path style="fill:#e7d6c4" d="m1.7 34.7-.3.4C1 33.7.5 32.3 0 31c.5-1.3 1-2.5 1.5-3.4.4.8.8.2 1-1.8.1-.1.2-.4.3-.7.2-.5.4-.9.7-1.4.1 0 .3.2.4.2.2 0 .3-.1.4-.2.4-.2.8-.5 1.3-.7.7-.2.5-.2.9.5-.1-.3-.3-.6-.4-.9-.4.2-1.1.4-1.3.8-.1.1-.3.3-.7.4-.3 0-.4.1-.5.2-.3 0-.7.3-1.4.8l.2-.2c0-2-.6-3.5-1.9-4.6.1-.4.1-.9.2-1.5 0-.5 0-1.1.2-1.5.1-.5.1-1 .2-1.6.1-.6.2-1.2.2-1.8.1-.6.2-1.2.4-1.7L2.4 9c.1-.4 2.6-1.1 3-1.3.9-.4 1.6-.7 2.4-.9 3-.9 6.1-1.2 9.2-1.5 20.1-1.5 40.1-2.5 60.3-2.4 8.7 0 17.9-.8 26.7.1 5.4.5 10.9.9 16.4 1.4 4.9.4 9.7 1.4 14.6 1.6 2.5.1 4.1 2.8 4.3 5.1 0 .2.1.7.3 1.4.1.7.3 1.1.4 1.2-1-.4-1.5.4-1.5 2.4-.1.4 0 1.1 0 2.2.1 1.1.1 1.9 0 2.7-.1.7-.3 1.4-.7 1.9.4 1.2.4 2.7.2 4.7-.2 1.9-.3 3.3-.2 4.2.1.8.2 1.8.2 2.8v3c0 1 0 2 .1 2.9.2 2.1-.1 3.6-.9 4.4-.8.8-1.4 1.3-2.1 1.4-2.7.4-4.6.6-5.9.6-2.4-.3-5-.6-7.8-1-22.5-3.1-45.4-2.2-68-1.9-2.8 0-5.6.1-8.3.1-13.2.3-23.5-1-30.7-1-.5 0-4.9-2.5-13.4-3.5.1-.4.1-1.1.2-2.2s.1-1.8.2-2.2l.2.2.1-.7zm5.6-.2-.1-.4-.1.6.2-.2z"/></svg>