<svg version="1.1" id="Capa_1" xmlns="http://www.w3.org/2000/svg" x="0" y="0" viewBox="0 0 512 512" style="enable-background:new 0 0 512 512" xml:space="preserve"><style>.st0{fill:#141414}</style><path class="st0" d="M337.7 38H174.3C99 38 38 99 38 174.3v163.5C38 413 99 474 174.3 474h163.5C413 474 474 413 474 337.7V174.3C474 99 413 38 337.7 38zm95.4 299.7c0 52.6-42.8 95.4-95.4 95.4H174.3c-52.6 0-95.4-42.8-95.4-95.4V174.3c0-52.6 42.8-95.4 95.4-95.4h163.5c52.6 0 95.4 42.8 95.4 95.4v163.4z"/><path class="st0" d="M256 147c-60.2 0-109 48.8-109 109s48.8 109 109 109 109-48.8 109-109-48.8-109-109-109zm0 177.1c-37.6 0-68.1-30.6-68.1-68.1 0-37.6 30.6-68.1 68.1-68.1s68.1 30.5 68.1 68.1c0 37.6-30.5 68.1-68.1 68.1z"/><circle class="st0" cx="373.2" cy="138.8" r="14.5"/></svg>