<svg xmlns="http://www.w3.org/2000/svg" style="enable-background:new 0 0 100 100" xml:space="preserve" width="100" height="100"><path style="fill:#ff6900" d="m89.8 85.7-2.4-12.2-4.8-31s-2.7-18.2-3.3-22c-.6-3.8-1.8-7.3-1.9-7.6-.2-.3-.3-.6-.9-1.3-.7-.7-1.3-.1-1.5 0-.3.1-.6 1-.6 1-.2 1-.6 2.5-.9 4.3-.8 4.3-1.2 7.6-1.4 9.9-.5 4.7-1.1 9.9-1.5 12.8-.5 4.5-1.2 10-2.4 16.8-.7 4-1.8 9.7-1.9 9.6-.2-.2-.2-.3-.2-.3l-1.5-8.8L62 41.4S57.1 11 56.8 9.9c-.3-1.1-.8-2-1.7-2.1-.8-.1-1.3.7-1.4 1.1-.1.4-.6 2.9-.6 2.9s-1.9 10.4-2.3 12c-.3 1.5-1.9 11.7-2.1 12.9C48.5 38 45.1 56 45.1 56L43 65.6s-1-7.6-1.2-9.7c-.2-2.1-1.9-13-1.9-13s-2.4-12.8-2.8-16.2c-.3-3.5-1.4-9.1-1.4-9.1s-1.6-6.3-2-7.8c-.4-1.5-.8-2.1-.8-2.1-.4-.6-1-.3-1.4-.2-.4.2-.9 1.5-.9 1.5s-2 5.8-2.2 6.7c-.3.9-3.9 12.1-3.9 12.1s-3 10.9-3.2 11.6c-.2.6-2.6 11.9-2.9 13-.3 1.1-3.9 15.3-3.9 15.3S12 79.4 11.6 81.4c-.4 2.1-1.5 9.7-1.5 10.5 0 .8.1.8.3 1.4.2.6 1.8.5 3.4.6 1.6.1 5.2-.1 8-.1 2.7-.1 6.1-.5 6.1-.5s13.9-1.4 14.8-1.5c.9-.1 18.8-1.3 19.8-1.4 1-.1 12.1-.8 15.1-.9 3-.1 9.2-1 11.2-1.2 1.9-.3 1-2.6 1-2.6m-16.1-56s1.3-10.3 1.5-11c.2-.7.8-4 .8-4s.9 3.5 1.3 5.6c.4 2.1 1.9 12.5 1.9 12.5l.7 4.4-6.9.5.7-8zm8.9 57.4c-1.3.1-14.1.8-14.1.8s-15 1.1-18.1 1.3c-3.1.2-22.3 1.9-22.3 1.9s-7.5.8-9.8.8h-5.6s-.6-.1-.6-.4c0-.3.2-2.7.6-5.3.4-2.5 3.8-18.3 3.8-18.3s4.4-18.1 4.8-19.4c.4-1.3 3.9-16.1 4.4-17.8.6-1.7 4.3-13.4 4.3-13.4l1.9-5.9.7 2.2-3.1 11.6L24 46.6s-6.4 26.2-6.9 29.1c-.5 2.9-2.6 11.6-2.6 11.6s-.2 1.8-.2 2c0 .2.8.2.8.2s2.7-.3 3.1-.2c.4 0 6.2 0 9.5-.2s21.5-1.4 22.5-1.5c1.1-.1 30.4-2.1 30.4-2.1s5.8-.5 6.1-.6c.3-.1.5-.1.5-.1l.5 1.6c.1-.1-3.8.6-5.1.7"/><path style="fill:#110202" d="M27.1 74s-.1.2-.3.2c-.2 0-.2-.2-.2-.4s.4-2 .6-2.4c.1-.5.5-1.6.5-1.6s.1-.2.3-.2c.2 0 .2 0 .3.1.1.1.1 1 .1 1.1 0 .1 0 .6.1.8 0 .2.1.2.1.2s.1 0 .2-.1.8-1.5.8-1.5l.1-.2s.1-.1.2-.1.2 0 .2.1.1.1 0 .2c0 .1-.1.7-.1.8 0 .1-.1 1.1-.1 1.4v1s-.1.3-.2.3c-.2 0-.2-.3-.2-.3v-.7c0-.3.1-1.2.1-1.2v-.2l-.3.6s-.3.4-.3.5c0 .1-.2.2-.4.2s-.3-.1-.4-.3c-.1-.2-.1-1.1-.1-1.1v-.1s-.3.8-.4 1.2c-.1.4-.4 1.7-.4 1.7s-.2-.1-.2 0M38.3 71.8h-.2v-1.9c0-.1-.1-.2-.3-.3-.2 0-.3.2-.3.2l-.3.7-.6 1.5s-.1.1-.2.1l-.1.1v.4l-.3.9c0 .4.2.4.2.4.1 0 .1 0 .2-.1.1 0 .1-.2.1-.2s.1-.5.2-.6c0-.1.2-.5.2-.5h.6s-.1.7-.1.8c0 .1.1.3.1.3s.1.1.2 0c.1 0 .2-.2.2-.2v-1h.2s.2 0 .2-.2c.1-.3 0-.4 0-.4m-.8.1h-.4s.2-.5.2-.6c0-.1.2-.4.2-.4v1zM44.3 69.8s.1-.2.3-.2c.2 0 .2.1.2.4 0 .3-.3 3.1-.3 3.1s0 .4-.3.4-.3-.3-.3-.3l.4-3.4M51.7 70.2c.2-.2.5-.2.7-.1.2.1.2.3.2.3 0 .1-.1.1-.2.1h-.2s-.1 0-.2.1-.2.4-.3.5c-.1.2 0 .6 0 .7 0 .1.2.7.2.8 0 .2 0 .8-.1 1-.1.2-.4.4-.6.5-.2.1-.4.1-.6.1-.1 0-.3-.2-.3-.2 0-.1 0-.2.1-.2.1-.1.2 0 .2 0h.2s.3 0 .4-.2c.1-.2.2-.3.2-.5s-.2-.7-.2-.9c0-.2-.1-.5-.1-.7 0-.2 0-.6.2-.8.2-.2.4-.5.4-.5M60.7 70.9c-.3-.7-.8-.6-.8-.6-.2 0-.8.2-1 1-.1.2-.1.6-.2.8-.1.8-.1 1 .1 1.7.2.6 1 .5 1.1.5.1 0 .5-.2.9-1 .3-.9.2-1.7-.1-2.4m-.5 2.4c-.2.3-.4.5-.4.6-.1 0-.3.1-.3 0-.1-.1-.3-.3-.3-.8s.1-1 .1-1.3c.1-.3.2-.6.3-.8.2-.2.3-.2.3-.2s.1 0 .2.1.3.4.3.9c.1.4 0 1.1-.2 1.5M66.5 72s.4 1.5.5 1.9c.1.4.3.5.4.5.1 0 .4 0 .6-1.2.2-1.2.6-2.6.6-2.6s.2-.6.2-.7c0-.1-.1-.2-.2-.2 0 0-.2 0-.2.1 0 0-.2.5-.2.7 0 .2-.4 1.7-.5 1.8-.1.1-.2 1.2-.2 1.2v.1l-.2-.8s-.2-1-.3-1.2c0-.1-.1-.5-.2-.5 0 0-.1-.2-.3-.2-.2 0-.2.1-.3.4l-.3.9c-.1.3-.3 1.4-.3 1.7 0 .3-.1.7-.1.9 0 .1.1.3.2.3s.1 0 .2-.1c0-.1.1-.2.1-.3 0-.1.2-1.2.2-1.4-.1-.3.2-1.2.3-1.3-.1-.1 0 0 0 0M25.7 80.3s-.1-.6-.3-1.1c0 0-.1-.2-.3-.4-.2-.1-.2-.1-.3-.1-.1 0-.2.1-.2.1-.4.5-1.5 6.6-1.6 7 0 0-.1.2 0 .3 0 .1.1.1.1.2.3.1 1-.8 1.1-.9.4-.4.7-.9 1-1.6.3-.6.3-1.1.4-1.5 0-.5.1-1.2.1-2m-.6 1.3c-.1.9-.3 1.6-.5 1.9-.2.4-.3.6-.3.7-.2.4-.5.6-.7.8v-.1l1.2-5.2s0-.1.1-.1l.1.1c.1.2.1.4.2.7-.1.1 0 .4-.1 1.2M31.8 79.9c0-.1.1-.2.2-.3 0 0 .1-.1.2-.1h.3c.3 0 .6 0 .8-.1 0 0 .1-.1.3-.1.1 0 .1 0 .2.1.1 0 .1.1.1.1v.2c0 .1-.1.1-.1.1l-.8.2h-.6s-.1.1-.1.2-.2 1.3-.2 1.3l-.1.9v.1h1.2s.1.1.1.2-.1.2-.1.3c-.1 0-.6.1-.6.1l-.6.1h-.2l-.1.1-.2 1.8v.4l.6-.1.2-.1h.3c.1 0 .2 0 .2.1v.2c0 .1-.5.2-.5.2s-.2.2-.4.2c-.3 0-.5 0-.5-.1-.1-.1-.2-.1-.2-.3 0-.2.3-3.2.3-3.2l.3-2.4v-.1M32.7 77.9s-.1-.2 0-.3c.1-.2.4-.4.5-.5l.4-.4s.1-.1.2-.1.2 0 .2.1v.2c0 .1-.5.6-.5.6l-.4.4s-.1.1-.2.1l-.2-.1M41.2 80.2c-.1-.3-.6-.7-.8-.9-.3-.1-.6-.1-.7.1-.2.1-.2.4-.2.4l-.7 5.3s0 .4.3.4.3-.3.3-.3l.1-.9s.1-.8.1-.9c0-.1.2-.1.2-.1s.3-.1.7-.6c.3-.3.6-.9.8-1.3.1-.3 0-1-.1-1.2m-.6 1.3c-.4.6-.7 1-.7 1s0 .1-.2.1l.3-2.7s0-.1.1-.1c0 0 .2 0 .5.3.1.3.4.8 0 1.4M46.2 83.7c-.1.3-.2 1.5.2 1.6h.3c.3-.1.6-.1.8-.3.1-.1.3-.2.3-.3 0-.1-.1-.2-.2-.2 0 0-.1 0-.3.1-.2.1-.3.2-.4.1-.1 0-.1-.1-.2-.1l.6-4.2s.1-.5.1-.8c0-.3-.1-.5-.2-.5-.2 0-.2.1-.4 1.1-.3.8-.6 3.5-.6 3.5M56.5 78.7c0-.3-.1-.5-.3-.6H56c-.2 0-.5.2-.6.5 0 0-.5 1.2-.8 1.9-.8 2.3-1.6 3.7-1.6 3.7s-.2.4.1.5c.3.1.5-.3.7-.7.2-.4.8-1.8.8-1.8l1.3-.1-.1 1.1s-.1.6-.1.8c0 .3.5.7.6-.4.3-2.2.2-4.9.2-4.9m-.5 1.5v1.2l-.6.1H55c-.2 0 .6-1.8.6-1.8l.3-.6.1-.2v1.3M64.3 77.8s0-.1-.2-.1c-.1 0-.3.1-.3.1s-.8.4-1.4 2.2c-.6 1.8-.1 2.6-.1 2.6s.2.6.7.7c.5.2.6.1.7 0 .1-.1 0-.3 0-.3s-.5-.2-.7-.3c-.2-.2-.5-1.3 0-2.6s1.1-1.7 1.1-1.7.3-.1.3-.4c0-.1-.1-.2-.1-.2M70.8 75.5s-.2-.2 0-.4c.1-.1.9-.8.9-.8s.2-.1.4 0c.1.1.2.3 0 .5-.1.1-.9.8-.9.8s-.2 0-.4-.1M69.4 83c-.1 0-.1-.3-.1-.6v-.3s.5-3.3.6-4c.2-.7.2-1 .4-1.2.2-.2.8-.4.8-.4l.6-.1s.1 0 .2.2 0 .3-.2.4c-.2.1-.6.1-.6.1s-.4.1-.5.9c-.1.8-.2 1.5-.2 1.5s0 .1.1.1 1.3-.3 1.3-.3.3-.1.3.1c.1.2 0 .3-.4.5s-1.5.4-1.5.4l-.3 1.8s-.1.2 0 .3c.1 0 1-.2 1-.2l.5-.1s.2 0 .3.2c.1.2-.1.4-.5.5-.4.1-1.3.2-1.3.2s-.3.1-.5 0"/></svg>