<svg xmlns="http://www.w3.org/2000/svg" viewBox="0 0 500 500" style="enable-background:new 0 0 500 500" xml:space="preserve"><path d="M473 230.2c2.1-.4 3.8 1.3 5.5 1.3-.1-1.4-2.2-1.3-2.8-2.3 1.2-.1 1.6-.4 2.6 0-.2-2-2.9-1.9-3.4-3.6.2-.4.8.1.9-.4-.9-.6-2.1-.9-3.2-.4-.5-.1-.8-.5-.9-.9-2.6-.7-4.7-1.8-7.5-2.4-2.5-.6-5.8-1.2-8.4-1.7-.5-.1-1.3-.2-1.8-.2-.3 0-.5 0-.8-.1-.4-.3-.7-.7-.8-1.1.8.3 1.8 1.5 2.5 1.1-.2-.6-1.1-1-1-1.7.5-.6 1.1 0 1.7.3.4-.4-.2-.4-.1-.8.2-.1.5.3.7 0-.5-.6-1.1-1.2-1.8-1.7 0-.2.1-.3.2-.6-1.4-2.3-4.4-4.1-6.4-6.3.9-.4-.1-1 .7-1.4-.3-.8-1.1-.3-1.6-.7-.2-.2.2-.6 0-.9-2.4-1.8-4.5-4-7-5.7-5.9-4.1-11.8-8.3-17.9-12.6l-4.2-3c-2-1.4-4.1-2.6-6.1-4.1-3.3-2.4-6.5-4.8-9.5-6.7-10.8-7-20.6-14.8-30.6-22.3.1-1.4-1.7-1-2.6-1.9-.3-.4-.3-.8-.6-1-.3-.2-.7-.1-1.1-.3-.8-.4-1.4-1.2-2.1-1.4-.3-.2 0-.7-.3-.9-.4.2-1.1-.2-1.5-.4-.9-.6-1.6-1.6-2.7-2.1.2-1.5-1.6-1.5-2.3-1.9-1.7-1-3.4-2.9-4.9-3.9-3.7-2.3-6.7-5.5-10.3-7.8-.2-1-1.5-1.3-2.5-2-.5-.4-.9-1-1.4-1.3-7.7-5.2-14.4-12.1-21.8-16.3-1.4-1.8-3.4-3.7-5.6-5.1-2.7-1.7-5-4.3-7.9-5.3.1-1.1-.9-.9-1.5-1.3-.5-.4-.6-1.3-1.4-1.2-.5-2-3.3-3-4.6-4.4-.3-.2-.5.1-.8 0-.4-1.5-2.1-2-2.9-2.8-1.8.3-2.4-1.8-4-2.3.2-.5-.1-.7-.5-.9.2-.2.3-.4.3-.5-.3-.2-.7-.1-1-.3.4-1-1.2-1.4-1.7-1 .1-.7-.8-1-1.3-1-.3-.2.4-.7.1-.9-.3.3-.6.5-.9.4-.4-.1 0-.4-.3-.5-.8-.1-1.5-1.3-2.2-1.7 0-.6-.2-1.6-1-1.9-.2-.2-.4.6-.6.4-.2-.2-.3-.2-.5-.2-.1-.4.7-.5.4-.8-.4-.3-.8.6-1.2.3-.2-.3.2-.8 0-1.1-1.2.6-1.6-1-2.6-1.4-.7-.3-1.3 0-1.9-.4 0-.5.4-.2.5-.7-.7-.3-.9-.8-1.4-1.3-.4.3.2.7-.4.8-.8-.9-1.7-1.7-2.7-2-.5.9.6.8.8 1.1-.4.8-.8-.1-1.1-.2-2.6-1.8-4.3-3.8-6.8-5.6-.1-.2.2-.5-.2-.6-.2.3-.5.1-.7.5.9.9 2.1 2.4 3.2 3.2.6.4 1.8.4 1.1 1.5-1.4 0-2.1-2.3-3.4-2.4-.3.4.3.7-.2.9-.9.2-.6-1.2-1.4-1-.1.3.6.4.4.8-2-.1-2.1-2.7-3.9-2.8.4 1.4 3 2.2 3.2 3.6-.5-.2-1 .1-1.4-.1-1.9-2.2-3.9-4-6.3-5.9 1.4 1.8 3.8 3.4 4.2 5.7.2-.2.4-.3.6-.3-.2.7.3 1.3.5 2 .5 0 1.1-.3 1.6 0 .1.4-.5.7-.5 1 1-.2 1.6.8 1.5 1.7.4.2.8.2 1.1.5.3-.4.3-.6.7-.5 1 .6 1.1 1.4 2 1.7.2.2-.2.5-.1.7.5.2 1-.1 1.5.6-.3.5-.2.9-.4 1.4 1.1.1 1.7.9 2.4 1.3 0 1.2.8 1.4 1.3 2.3-.7.1-1.3-.5-2 0-.4-.2.3-.6.1-.9-.6-.6-1.2 0-1.7-.8 0-.3.4-.3.4-.6-1.1-.7-1.6-1.7-2.7-2 0 .2.2.3-.1.6-.3-.7-.6-.5-1.2-.8-.3-.3-.3-.7-.5-1-1 .1-.9-1-1.3-1.3-.4-.4-1.5-.4-1.8-1.2.2-.3.3-.2.5-.4-.6-.4-.6-1-1.2-1.4-.5.1.2.5-.1.8-.5.4-1.2.9-1.5.2.2-.2.4 0 .5-.3-.4-.6.4-.9.2-1.4-.3-.3-.7.5-1 .1-1.2-.6-1.5-1.7-2.7-2.2 0-.6-1.3-1.9-1.9-1.5.4.7 1.2 1.4 2 1.9-.1.4-.2 1.2.5 1.3-.3-.2-.3-.7 0-.8.7.7.1 1.2.5 2-.6.5-.8-.4-1.1-.7-.5-.6-1.3-1.2-1.7-1.7-.5-.6-1.2-.9-1.8-1.5-.7-.7-1-1.9-2-2-.1.8 1.2.9 1.1 1.6-.1.3-.7.9-1 .6-.1-.3-.2-.6.2-1-1.5-.3-2.1-2.6-3.6-2.5-.1-.2.3-.5-.1-.7-.3-.1-.2.6-.5.3-.2-.3.6-.8.1-1-.6.5-1.3.1-1.9-.3.5.9 1.1 2.1 2 2.6-.4.7 1 .8.5 1.6-2.1-2-4.3-4.3-6.3-6.5 0 1.8 3 2.9 2.1 4.8-1.5-.9-2.7-2.5-3.8-3.6-.3 0-.2.6-.5.5-.7.1-.6-.6-1.2-1-.2 0 .2.7-.3.7-.6-.7-1-1.4-1.5-2-.5.8 1.1 1.2.6 2.1-.3.1-.5-.5-.8-.3 0 .3.2.5-.2.8-1.4-1-1.4-2.3-2.8-3.6-.5.9-1.1.7-1.7 1.6-.3-.4-.9-1.1-1.4-1.8-.5.2-.7.1-1.1.5-.1-.2-.1-.4-.3-.6-.2.2-.2.5-.5.4-.5-.2-.2-.8-.8-.8-.6.6.5.9-.1 1.5-.4-.1-.6-.7-1.1-.6 0-.3 0-1.1-.6-.8.1.5.7.9.2 1.6-.6.2-1-.2-1.4-.7-.2.1-.4.6-.5.5-.3-.2-.2-.4-.5-.6-.5.5-1 0-1.5 1-.1.7.7 1.2.4 1.9-1.3-.7-1-2.6-1.8-3.4-.9 1.1.2 1.9-.2 3-.7-.4-1-.4-1.2-1.2-1.3 1.6.1 2.7-.7 4.2-.4.2-.3-.5-.7-.1 0 .8.4 1.6 1.3 1.7.2.3.1.7-.2 1.1.8 1.7 1.1 3.4 2 5.1.8 1.6 2 3.5 3 5 .2.3.5.7.8.9.8.9.8 1.2 1.2 2 1.1 1.9 3.5 3.1 4.5 5.2 2.2.8 3.7 4 5.9 5.8 2.5 2 4.7 4.5 7.3 6.8 3.9 3.4 8 7.4 11.5 10.4 2.2 1.9 4.4 3.6 6.4 5.5.3.2.5-.1.8.1.4.8 1.3 1.5 2.1 1.8.6 1.4 2.5 2.2 3.8 3.3 1.2 1 2.1 2.6 3.6 2.7.1.9.9 1 1.5 1.5 1.9 1.6 3.9 3.6 5.9 5.1 1.4 1.1 3.2 2.1 4.4 3.4.3.3.4.6.7.8.4.2.9.1 1.2.3.6.3.6.8 1.2 1.4.5.6 1.4.9 1.8 1.5.6-.4 2 .4 1.8 1.2.3.2.5-.1.8.1 1.5 2.3 5.1 4.8 7 6 .4-.2 0-.7.3-.6.7.5 1.2 1.7 2.4 2.2.5.9 1.2 1.9 2.1 2.5 2.6 1.7 5.1 4 7.3 5.7.2 0 .5-.1.7.1.6.7 1.2.6 2 1.3 0 1.2 2.1 2.3 3.2 2.4 0 .3 0 .6.3.8 1.6.2 2.6 1.6 3.9 2.8.4.4 1 .5 1.4.7.8.5 1.2 1.1 1.8 1.6.3.2.8.3 1.1.5.9.7 1.4 1.9 2.8 2 .4 1.1 1.6 1.3 2.5 1.9 1.1.8 2 2 3.1 2.7.1.1.4 0 .5.1.4.3.5.9.9 1.2.8.7 1.9.9 2.7 1.3.5.9 1.5 1.2 2.4 1.8-.2.2-.2.4-.3.5 1.2.1 2 1.7 3.2 1.8.2.2.2.5.3.8.8 0 .9.6 1.6 1.1.3.1.5 0 .8.1 2.7 2.1 4.5 4 7.7 5.9.2.3.2.7.3 1 2.1 1.3 4.9 2.2 6.3 4.3.2 0 .5-.1.7.2.2.2-.2.5.1.7.3.3.5-.2.8.1.3.9 1.6 1.2 2.4 1.8.9.7 1.6 1.4 2.5 2 .2.2.1.5.4.7 1.3 0 1.5 1.8 2.9 1.5-.3.9.7 1.1 1.3 1.1.1.2-.2.5.2.6 1-.1 1.3 1.4 2.3 1.1.2.2-.3.5.1.6 1.8.8 3.1 2.2 5 3.6 1.7 1.3 4.1 1.7 4.9 3.2.2.1.4-.1.7 0 0 .3.3.5.3.8 1.2.5 2.5 2.3 4 2.5 1.9 1.5 4.4 3.4 6.6 4.3.1.3.2.4.4.5h-3.6c-4.4 0-8.7.2-12.9 0-.5 0-.5.4-1 .4-1.2-.3-2.9-.3-4.2 0-2-.7-5.2 0-7.6 0-2.4 0-5-.6-6.8.2-1-.6-2-.1-3.2-.1-3.7 0-8-.2-11.8-.1-2.8.1-5.8.4-8.5.3-.6 0-1-.2-1.5-.2-.7.1-1.2.5-1.6.5-1 .1-1.5-.2-2.7-.3-1.2-.1-2.5.2-3.6 0-.4.7-2.7 1-3.3.2-.5 0-.5.4-1 .4-4-.8-10.6-.4-14-.2-.2.4.7.5.2.7-1.2.1-3-.6-5-.2-1.4-.4-3.2-.7-4.9-.6-4.7.3-9.8.1-14.1.2-.3.1-.4.4-.9.4-1.4-.2-2 .3-3.6.2-1.1-1-4.7-.5-6.1.1-.3-.2-.6-.4-1.1-.4-2.1.9-4.6.3-7.3.2-.9 0-1.6.3-2.4.3-1.5.1-2.4-.1-3.6-.1-.6 0-1.2.3-1.8.3-1.7 0-3.5-.6-5.2.2-1.5-.7-3.1 0-4.9 0-2.1.1-4.2-.4-6.2-.3-.3 0-.5.2-.7.3-.8.1-1.4-.4-2.1-.4-1.6 0-3.1.4-4.5.6-1.5-.4-3 0-4.5 0 0-.3 0-.5-.2-.6-1.5.7-4-.1-5.6.5-.4-.1-.7-.3-1.1-.4-1 .5-1.6 0-2.9.1-.4.1-.6.3-1.1.4-5.2 0-9.2-.5-14.7 0-.5-.2-.9-.4-1.2-.7-3.8.3-8 1.2-11.7.4-.2.2-.5.3-1.1.3-.4 0-.2-.6-.8-.5-.7-.1-.5.4-1.1.4-1.2-.6-3.1 0-4.5 0-1.6 0-3.2-.2-4.9-.1-.4-.1-.6-.3-1.1-.3-1.6.8-3.5-.6-5 .5-.4-.9-1.8-.5-2.6-.2-.3-.1-.2-.5-.8-.3-1.2.6-2.9-.4-3.8.5-.4 0-.1-.6-.6-.5-2.9.4-5.8.1-9.4.1-3.3 0-6.6 1.1-8.9.3-.4.1-.4.4-.9.4-.3-.2-.8-.3-1.1-.4-2 .3-5.1-.4-7.1.3-3.6-.1-8.4-.3-12 .4-.7-.4-1.3 0-2.1-.3-.3.3-1.1.3-1.5.5-4.1-.6-10-.5-14.9-.4-13.7.5-27.2.2-40.7-.3-12.9-.4-25.5-1.9-38.3-1.4-.7.5-2.5.5-3.2.5-.4.2-.7.6-.7 1.1 1.6 1-.4 1.8-.4 3 0 1.1 1.7 1.7 2.5 2.6.5.5.4 1.3.8 1.9.6.9 1.8.8 2.3 1.5.1 1 1.1 1.2 1.1 2.2.6.2 1.6 0 1.8.5-.7.9.6 1 .8 1.8-1 1.7.8 4.2-.7 5.4.3.1.5.2.5.6-.2.2-.6.3-.7.6.3.1.6.2.6.6-.5.3-1.3.4-1.2 1.1-.1.6.8.4.8.9-.1 1.9 1 2.7 2.1 3.9.2.6-.7.7-.3 1.1.5.1 1.7-.2 2.1.3-.4.7-.9.7-.4 1.6-.4.5-1.6.3-1.8.9.7.6 2.9-.5 3.4.5-.2.3-1 .1-1 .5 2.8-.1 4.6.6 7.2.7-1 .1-2.2 0-2.7.4 1.7.5 4.5 0 5.8.9-1.4.2-3.6-.2-4.2.5.8.4 2.2.2 2.8.9-.1.8-1.5.6-2.6.7-.2.6.7.2.8.6-.2.2-.9 0-.9.4 1.2.2 2.4.4 3.8.4.1.1.2.3.2.6 3.7 1.2 9.2 1 13.6 1.6-.8.8 1 .8.2 1.5 1.1.4 1.7-.4 2.7-.3.4.1.3.6.8.7 4.7.1 9.2.7 14 .8 11.1.1 22.5.1 34 .1h8c3.8 0 7.6-.2 11.4-.2 6.3 0 12.6.1 18-.1 20-.7 39.4-.3 58.8-.4 1.2 1.1 3.1-.3 5 0 .8.1 1.1.4 1.7.4.5 0 1.1-.3 1.7-.4 1.4-.2 2.9.1 3.9-.1.7 0 .6.6 1.2.6.4-.4 1.5-.5 2.3-.5 1.6-.1 3.5.3 5.3 0 1.1 1.3 3.4.2 4.7.1 3.1-.3 6.9.2 9.7.1 6.8-.4 13.5.3 20.2-.3 1.2.6 3.1 0 5 0 1 0 2 .2 2.9.1 14.5-.7 29.2.3 42.4-1.1 3.5.5 7.8.7 11.8.3 5-.4 10.2.1 14.8-.9 1 .9 2 .1 3 0 1 0 2 .6 2.9 0 2.5 1.2 6.9.2 9.9.4.5 0 .5-.4.9-.5 1.9.9 4.5.2 6.2.3 1.4-1.1 3.4-.6 5.3-.6l-.4.4h-.6v.5h.1c-2.6 2.6-5.1 5.2-7.2 7.5-8.7 9.9-18.1 18.8-27.2 27.8-1.4-.2-1.3 1.6-2.3 2.3-.4.3-.8.2-1.1.5-.2.2-.3.7-.5 1-.5.8-1.5 1.3-1.8 1.9-.3.3-.7-.1-1 .2.1.5-.3 1.1-.7 1.4-.7.8-1.8 1.4-2.5 2.5-1.5-.5-1.8 1.4-2.3 2.1-1.3 1.6-3.5 3-4.7 4.4-2.9 3.4-6.7 5.9-9.5 9.3-1 .1-1.5 1.4-2.4 2.3-.5.5-1.1.8-1.5 1.2-6.5 7-14.4 12.8-19.9 19.7-2.1 1.2-4.3 2.9-6.1 4.9-2.2 2.5-5.1 4.4-6.7 7.2-1.1-.2-1 .8-1.5 1.3s-1.4.4-1.5 1.2c-2.1.2-3.5 2.9-5.2 4-.3.2 0 .5-.1.8-1.5.2-2.4 1.8-3.3 2.5 0 1.8-2.3 2.2-3 3.7-.5-.3-.7 0-1 .4-.2-.2-.3-.3-.5-.4-.3.3-.2.6-.5.9-.9-.6-1.6 1-1.3 1.5-.7-.2-1.1.7-1.2 1.2-.3.2-.6-.5-.9-.2.3.3.4.7.2 1-.2.3-.4 0-.6.2-.2.8-1.6 1.3-2.1 2-.7-.1-1.7 0-2 .7-.2.2.6.5.3.7-.2.1-.3.3-.3.4-.4.1-.3-.8-.7-.5-.4.4.4.9.1 1.2-.4.1-.7-.3-1.1-.1.4 1.3-1.3 1.5-1.9 2.4-.4.6-.2 1.3-.8 1.8-.5-.1-.1-.5-.6-.6-.5.6-1 .7-1.6 1.3.3.4.7-.1.7.5-1 .6-2 1.5-2.5 2.4.8.6.9-.5 1.2-.6.7.6-.2.8-.4 1-2.3 2.4-4.5 3.7-6.7 6-.2 0-.4-.3-.6.1.3.3.1.5.4.8 1-.8 2.8-1.7 3.7-2.7.5-.5.7-1.7 1.7-.9-.2 1.4-2.7 1.7-3 3.1.3.4.8-.2.9.4 0 .9-1.3.5-1.3 1.3.3.1.5-.6.8-.3-.5 1.9-3.1 1.6-3.5 3.5 1.4-.2 2.8-2.6 4.2-2.7-.2.5-.1 1-.3 1.4-2.5 1.5-4.7 3.3-7 5.4 2-1.2 4.1-3.4 6.4-3.3-.2-.2-.3-.5-.2-.6.7.4 1.4-.1 2.1-.2.1-.5-.1-1.1.3-1.6.4-.1.6.6.9.7 0-1.1 1.1-1.5 2-1.3.3-.4.4-.7.6-1.1-.4-.4-.6-.4-.4-.8.7-.9 1.6-.9 2.1-1.7.2-.1.5.3.7.2.3-.5.1-1 .9-1.4.5.4.9.4 1.3.6.3-1.1 1.2-1.5 1.8-2.2 1.2.2 1.6-.6 2.5-1 0 .7-.7 1.2-.4 2-.3.4-.6-.4-.9-.2-.7.5-.2 1.2-1.1 1.6-.3 0-.2-.4-.6-.5-.9 1-1.9 1.3-2.4 2.4.2 0 .4-.2.5.2-.7.2-.6.5-1 1.1-.4.2-.7.2-1.1.3-.1 1-1.1.8-1.6 1.1-.4.3-.7 1.4-1.6 1.6-.3-.2-.1-.3-.3-.5-.5.5-1.1.4-1.7 1 0 .5.5-.1.8.3.3.5.7 1.4-.1 1.5-.1-.2.1-.4-.2-.6-.7.3-.9-.5-1.3-.4-.4.3.4.7 0 1-.8 1.1-2 1.3-2.7 2.4-.5-.1-2.1 1-1.9 1.7.7-.3 1.6-1 2.3-1.7.4.1 1.1.4 1.4-.3-.2.3-.7.2-.8-.1.8-.6 1.2.1 2.1-.2.4.7-.6.7-.9 1-.7.4-1.4 1.1-2 1.5-.7.4-1.1 1.1-1.8 1.6-.8.6-2.1.7-2.3 1.8.8.2 1.1-1 1.8-.8.3.1.7.8.4 1.1-.3.1-.6.1-.9-.3-.5 1.5-2.9 1.7-3.2 3.3-.2.1-.5-.4-.7 0-.1.3.5.3.2.6-.3.2-.7-.7-1-.2.4.7-.2 1.3-.7 1.8 1-.4 2.3-.8 3-1.7.7.5.9-.9 1.7-.2-2.4 1.8-5.1 3.7-7.7 5.3 1.7.2 3.4-2.5 5.2-1.4-1.2 1.3-3 2.4-4.3 3.3-.1.3.5.3.4.6-.1.7-.7.6-1.2 1.1-.1.2.7-.1.6.4-.8.5-1.5.8-2.3 1.2.7.6 1.4-.9 2.2-.3.1.3-.6.4-.5.7.3 0 .5-.1.8.3-1.2 1.2-2.6 1.1-4.1 2.2.8.6.5 1.2 1.3 1.9-.5.3-1.3.7-2.1 1.2.1.5-.1.8.3 1.1-.2.1-.4.1-.6.2.2.2.5.2.3.5-.3.5-.9.1-.9.6.5.7 1-.4 1.5.3-.1.4-.8.5-.8 1-.3 0-1.1-.1-.9.5.5 0 1.1-.6 1.6 0 .1.6-.3.9-.9 1.3.1.2.5.5.4.6-.2.3-.5.1-.7.4.4.6-.2 1 .7 1.6.7.2 1.3-.5 2-.2-.9 1.2-2.8.6-3.7 1.3 1 1 2 .1 2.9.6-.6.6-.6.9-1.4 1 1.4 1.5 2.7.3 4.1 1.4.2.4-.5.2-.2.7.8.1 1.7-.2 1.9-1 .4-.1.7 0 1.1.3 1.8-.5 3.6-.6 5.5-1.3 1.7-.6 3.8-1.4 5.5-2.2.3-.2.8-.4 1.1-.6 1-.7 1.4-.6 2.2-.9 2.1-.8 3.7-3 6-3.7 1.2-2.1 4.7-3.2 6.8-5.1 2.4-2.2 5.4-4 8.1-6.3 4.1-3.3 8.8-7.1 12.5-10.1 2.3-1.9 4.4-3.9 6.6-5.7.3-.2 0-.5.3-.8.8-.3 1.7-1.1 2.2-1.9 1.5-.4 2.7-2.3 3.9-3.3 1.2-1.1 3-1.8 3.4-3.2 1 0 1.1-.8 1.7-1.3 1.9-1.7 4.3-3.4 6.1-5.2 1.3-1.3 2.7-2.9 4.1-4 .3-.2.7-.3.9-.5.3-.4.3-.9.5-1.1.4-.6.9-.5 1.6-1 .7-.5 1.1-1.3 1.8-1.6-.3-.7.7-1.9 1.5-1.7.2-.2 0-.5.3-.8 2.6-1.2 5.6-4.5 7.2-6.2-.2-.4-.7-.1-.6-.4.6-.6 1.9-1 2.7-2.1 1-.4 2.1-1 2.8-1.8 2.2-2.4 4.9-4.5 6.9-6.6.1-.2 0-.5.2-.7.8-.5.8-1.2 1.6-1.8 1.2.2 2.7-1.8 3-2.8.3 0 .6 0 .8-.2.4-1.6 2.1-2.3 3.5-3.5.4-.4.6-.9 1-1.3.6-.8 1.3-1 1.9-1.6.3-.3.4-.8.7-1 .8-.8 2.1-1.2 2.4-2.5 1.2-.2 1.6-1.4 2.4-2.3 1-1 2.3-1.7 3.3-2.7.1-.1.1-.4.2-.5.3-.4 1-.4 1.3-.7.8-.7 1.2-1.8 1.8-2.6 1-.4 1.5-1.4 2.2-2.1.2.2.3.3.5.3.3-1.2 2-1.8 2.4-3 .3-.2.6-.1.8-.2.2-.8.8-.8 1.3-1.4.2-.3.1-.5.2-.8 2.5-2.5 4.8-4 7.2-7 .4-.1.7-.1 1.1-.1 1.6-2 2.9-4.7 5.4-5.8 0-.2 0-.5.3-.7.2-.2.5.3.7-.1.4-.2-.1-.5.2-.8 1-.2 1.4-1.5 2.2-2.2.8-.8 1.7-1.4 2.4-2.3.2-.1.5-.1.7-.3.2-1.3 2.1-1.3 2-2.8.8.4 1.2-.6 1.3-1.1.2-.1.4.2.6-.1.1-1 1.6-1.2 1.5-2.1.2-.2.5.3.6 0 1.1-1.7 2.7-2.8 4.4-4.6 1.6-1.6 2.3-3.9 4-4.5.1-.2-.1-.5.1-.7.3 0 .6-.2.8-.2.7-1.2 2.7-2.2 3.1-3.7 1.8-1.7 4.1-3.9 5.3-6 .6-.1.6-.6 1.2-.8-.1-.4.3-.7.3-1.1 2.3-1.5 5-4.3 7-6.6 5.9-6.5 12.2-12.1 18.6-16.7 4.1-2.9 8.4-5.2 12.4-7.4 1.7 1.3 3.5 2.4 5.3 3.5.7-.2 1.6.4 2 .8.4 0 .7-.2 1-.7-.4-1.5 1.2-1.4 1.8-2.4.6-1-.1-2.1 0-3.1 0-.6.5-1.3.6-1.9.1-1-.6-1.3-.5-2.1.3-.6.2-1.1.3-1.6 1.2.1 2.3.1 3.4.2-.7-.5-2-.7-3.3-.8 0-.1 0-.1.1-.1-.3-.4-.9-.6-.7-1.1.1-.1.2-.1.2-.2 1.6 0 3.1.1 4.4.2.4-.2-.3-.5.1-.7.8-.5 1.4 0 2.4-.1.3-.1-.9-.3-.3-.7 1.3.1 2.6.3 3.8.5-.3-.9-2.5-.2-2.8-1.1.2-.3 1.1 0 1.2-.3-.3-.2-.7-.2-.6-.7 2.6-.2 4 .8 6.9.7-.4-1 .6-1.3.4-2.3.9.1 2.1.3 3.5.4.4-.5.8-.6.7-1.1.3.1.6.2.9.2-.1-.3-.3-.5.1-.6.8-.2 1.1.4 1.7.1.1-.9-1.5-.3-1.4-1.2.5-.2 1.3.1 1.8-.3.3.2 1.2.8 1.5.2-.6-.3-1.8-.2-1.9-1 .5-.5 1.3-.5 2.3-.4.1-.2-.2-.7.1-.7.6-.1.7.2 1.2.1 0-.7 1.1-.7.7-1.7.2-1.9-1.2-1.8-1.7-2.5zm-212.2-158c.8.2.8.9 1.5 1.5-.7-.1-1.5-.9-1.5-1.5zm1.6 1c.3-.4.6.1.6.3-.2.4-.7 0-.6-.3zm3.7.7c-.2.4-.8 0-.6-.3.1-.4.6.2.6.3zm.4 4.1-1.1-.9c.1-.4.4-.4.4-.8-.2-.2-.4.4-.7.4-.7-.5-1-1.1-1.8-1.6 0-.3.2-.7.4-1 .1.1.2 0 .3.1-.2.6.5 2.2 1.4 1.6.2.7 1.2.4 1.2 1.1-.1.2-.3.2-.5.1.2.4.9.6.4 1zm.4-2.9c-.4-.3-.7-.5-.7-.9.4-.3 1 .5.7.9zm1.5 4.5c-.4-.2-.4-.3-.8-.6.2-.6.9-.6 1.4-.1l-.6.7zm-41.6-9.4c-.3-.2-.5-.5-.2-.8.4.2.5.5.2.8zm.1-8.7c.4.3.4.6.1 1-.4 0-.4-.6-.1-1zm.3 9c.5-.1 1.2.9 1.3 1.4-.6.4-1.1-.9-1.3-1.4zm3.8-7.4c.7-.2.6 1-.1 1-.2-.3-.2-.6.1-1zm-.1 8.3c-.4.4-.7-.1-.7-.4.2-.1.8.1.7.4zm1.3 5.4c-.8-.9-2.3-1.7-2-2.9.8.9 1.3 1.5 2.2 2.4 0 .2-.1.3-.2.5zm1.3 1.2c-.2-.2-.7-.4-.7-.7.2-.2.5-.2.7-.2.1.2.3.5 0 .9zm1.4 1.3c.3.1.2.3.4.5-.2.2-.8-.1-.4-.5zm.3-13.3-.2.2c-.1-.1-.1 0-.2 0l-.1-.1c.1-.1 0-.1 0-.2l.2-.2c.1.1.1 0 .2 0l.1.1c-.1.1 0 .1 0 .2zm2-.6c-.3.2-.4-.3-.5-.4.3-.5.7.2.5.4zm8.7 25c-.5-.1-1.2-.8-.6-1.4.7.1.7 1 .6 1.4zm-.4-20.5c-.2 0-.3 0-.5-.2.1-.4.8-.1.5.2zm.2-1.7c.3-.5.6-.4.7-.1-.3.3-.5.3-.7.1zm1.4 20.3c.3-.1.2.2.3.4-.2.2-.7-.1-.3-.4zm8-15.2c.3-.3.9.3.5.6-.2.1-.5-.3-.5-.6zm1.3 1.3c-.4-.2-.4-.4-.6-.6.2-.3 1 .3.6.6zm2.2.2c.3.1.7.2.2.6-.2-.2-.5-.4-.2-.6zm.1 1.6c.6.5 1.1 1 1.5 1.4-.7.2-1.5-.7-1.5-1.4zm2.3 2.2c.2.2.5.3.5.6-.5.5-.9-.1-.5-.6zm5.2 4.9c-.2-.1-.7-.2-.3-.6.2 0 .5.3.3.6zm1.2 1.2c.3-.2.5.1.6.3-.2.3-.6-.1-.6-.3zm5.4 2.4c-.4-.2-.3-.4-.3-.7.3-.3.8.1.8.4-.2.1-.3.2-.5.3zm-.8-11.5c.2-.2.4 0 .5-.2.2.5.8 1 1.1 1.5-.7.1-1.2-.9-1.6-1.3zm2.7 12.4.3.2c-.2.4-.6.1-.3-.2zm2.1 26.8c-.3-.2-.4-.4-.1-.7.1.2.3.4.1.7zm-.2-24.3c0 .1-.1.3-.2.4l-.2-.2c.4-.3.5-.5.3-.8-.3-.2-.5-.1-.8.3.2-.4.2-.7.4-1.1 1 .5 2 1.2 2.2 2.2-.8.7-1-1.1-1.7-.8zm1.6-.2c-.4-.2.1-.7.3-.4-.2.3 0 .3-.3.4zm.5 1.8c-.2-.2-.2-.4 0-.6.3-.1.4.2 0 .6zm2.9-8c-.1-.2-.5-.2-.4-.5.2-.3.8.3.4.5zm3 12.8c-.4 0-.5-.6-.8-.9.4-.3.9.2 1 .6l-.2.3zm3.7-10.4c.2.1.3.2.3.4-.2.2-.7-.1-.3-.4zm.3 5.9.2-.3c.9 0 .1 1.1-.2.3zm-.2-2.7c.4-.3.6.3.8.5-.3.1-.7-.2-.8-.5zm1-.7c.4-.3 1 .2 1 .6-.3.3-.9-.3-1-.6zm1.7 1.3c-.4.1-.5-.3-.5-.6.2-.3.5-.2.8 0-.2.2-.1.4-.3.6zm65 140.1c.5-.1.9 0 .8.5-.4-.1-.8-.1-.8-.5zm7.4 24.8v.4c-1 .5-1-.9 0-.4zm-.6 3.7c-.1-.2-.3-.3-.3-.6.4-.3.9 0 1.2.1 0 .4-.4.5-.9.5zM234 393.8c.3.3-.2.7-.4.6-.4-.4.1-.6.4-.6zm-1.7 2.1c.3-.8 1-.7 1.7-1.2-.1.6-1.1 1.3-1.7 1.2zm3.9-5.7c-.3.3-.6.6-1 .6-.1-.5.7-.9 1-.6zm-1.2.7c.3.3-.2.8-.4.6-.4-.3.2-.7.4-.6zm3.1 1c-.4-.1-.3-.5-.7-.5-.2.2.3.5.3.7-.6.6-1.2.9-1.9 1.5-.3-.1-.6-.3-.9-.6.1-.1.1-.2.1-.3.6.3 2.2-.1 1.8-1.2.7-.2.6-1.1 1.3-1.1.2.2.2.3 0 .5.3 0 .6-.6 1-.1l-1 1.1zm-.5-6.7c-.1-.2 0-.4-.1-.6.6-.1 1.1-.7 1.7-.9 0 .7-1.1 1.1-1.6 1.5zm2.7 4.8c-.5-.3-.5-1 .1-1.4l.6.7c-.3.4-.3.5-.7.7zm-7.9 11.7c-.2-.3.4-.8.7-.4 0 .3-.4.5-.7.4zm-6.7 8.7c-.4-.4-.3-.6.1-.7.1.3.1.5-.1.7zm-10.1 17.8c.3-.3.7-.3 1 .1 0 .4-.7.3-1-.1zm2.3-3.8c-.1-.7 1.1-.4 1 .2-.3.2-.7.2-1-.2zm2.9-5.4c-.4-.5.3-.7.5-.5.2.3-.3.4-.5.5zm.9 1.9-.1.1c-.1-.1-.1-.1-.2 0l-.2-.2c.1 0 0-.1 0-.2l.1-.1c.1.1.1.1.2 0l.2.2c-.1.1 0 .2 0 .2zm1.8 8.8c.3-.3.6-.4.9-.1-.4.3-.7.4-.9.1zm1.2-.4c0-.5 1.1-1.1 1.6-1.1.3.7-1.1 1-1.6 1.1zm1-3c-.1-.2.3-.7.5-.6.4.4-.2.6-.5.6zm1.3-15c-.4-.2.1-.8.3-.4 0 .2-.1.3-.3.4zm1.6 15.5c1-.7 1.7-1.1 2.8-1.9.1 0 .3.1.4.3-1 .7-2.1 2.1-3.2 1.6zm3.8-2.1c-.2-.3-.1-.5-.1-.7.3-.2.6-.3.9.1-.2.2-.5.6-.8.6zm.8-23.5c-.2-.3.5-1 .8-.5-.3.3-.6.3-.8.5zm1.7 21.7c.2-.3.4-.2.5-.3.1.2-.2.7-.5.3zm-.4-24.5c.1-.3.4-.6.7-.1-.3.2-.5.5-.7.1zm1.7.2c.6-.5 1.2-1 1.6-1.3.1.7-1 1.4-1.6 1.3zm2.5-1.9c.2-.2.4-.5.7-.5.4.6-.3.9-.7.5zm5.2-4.3c0-.3.4-.5.6-.2-.1.2-.2.6-.6.2zm2.4-1.9c.2.3-.2.6-.4.6-.1-.3.2-.5.4-.6zm.3 21.3c.2.3-.2.6-.5.2.1-.3.3-.2.5-.2zm-.1 2c.2-.6 1-.5 1.5-.3-.3.5-1.1 1.1-1.5.3zm.8-36.7c-.4-.3.4-.7.5-.3-.1 0-.3.5-.5.3zm1.2 9.1c-.3-.4.2-.8.6-.7.1.2.1.3.2.5-.2.3-.5.3-.8.2zm2-2 .3-.3c.4.3 0 .7-.3.3zm4.3-15.5c.2.3-.5.9-.8.9-.2-.4.4-.9.8-.9zm-1.7 12c.2.2.3.1.3.4-.2.3-.6-.2-.3-.4zm-1.3-10.6c.2.3-.2.6-.4.3.1-.2.2-.2.4-.3zm1.6 12.6c.1 0 .3.1.4.3l-.2.2c-.3-.5-.4-.6-.8-.4-.2.2-.1.5.2.8-.3-.2-.7-.3-1-.5.7-.9 1.5-1.8 2.6-1.9.4.8-1.4.8-1.2 1.5zm1.3-2c0-.3.4-.3.6.1-.2.2-.4.1-.6-.1zm-.1-9.9c-.2-.4.4-.6.6-.8.1.4-.3.7-.6.8zm.4-2.2c-.3-.3-.1-.5.1-.8.2.1.4.1.6.3 0 .4-.5.5-.7.5zm2.3 2.3-.2-.3c.1-.8 1 .2.2.3zm2.8 5.4c-.2-.5.4-.9.8-.9l.2.3c0 .3-.6.3-1 .6zM277 386c.2-.1.5-.3.7 0-.2.3-.5.4-.7 0zm88.8-136.7c-.2.5-1.3.4-1.8.2v-.4c.5-.3 1.2.1 1.8.2zm.7 7.7c-.2.5-1.1.2-1.5.2.2-.3 1-.3 1.5-.2zm-2.4 1.4c.1-.4 1.5-.3 1.8-.2-.2.5-1.4.5-1.8.2zm87.4-17.1c.2-.3.8 0 1.1 0 0 .6-1 .3-1.1 0zm2.2-1.6h-.3c0-.1-.1-.1-.2-.1v-.2c.1 0 .1-.1.2-.1h.3c0 .1.1.1.2.1v.2c-.1-.1-.2 0-.2.1zm1.4-9c.4-.7 2.3-.1 2.9.1-.5.4-2.3.2-2.9-.1zm3.7.1c.6-.1 1.1 0 1.1.4-.7.1-1.1 0-1.1-.4zm1.4 7.2c.5.1.9.3.9.8-.5.6-1.6-.3-.9-.8zm6.2-1.5c.5-.3 1.1.2 1.1.7-.7.1-1.1-.2-1.1-.7z"/><path d="M233.4 387.6c.3.1.9.2.9-.3l-.3-.4c-.4.2-1.7.9-1 1.6.5-.2.4-.5.4-.9zM253.8 368.1l-.3-.3c-.4.5-.6.8-.9 1 .5.3.6-.4 1.2-.7zM235 385.1c.2-.1.4-.1.6-.4-.2-.3-.7.3-.6.4zM232 388.7c.2.5.8.2.5-.2-.1.1-.3-.1-.5.2zM240.4 392.4c-.3-.5-.7-.2-.7.1.3.3.6.2.7-.1zM228.6 404.6c.3.3.5.2.8 0-.3-.4-.6-.2-.8 0zM228.7 396.2c.5.4.8-.1.6-.5-.2.2-.6.1-.6.5zM224.3 402.4c-.6.4-1.6.8-1.9 1.5.9-.4 1.4-.8 1.9-1.5zM227.5 393.5l-.4.3c.3.2.5.5.8.3.2-.1-.3-.4-.4-.6zM229.2 400.2c.2.4.4.2.5 0-.1-.2-.3-.2-.5 0zM269.1 71.9c-.1.3 0 .9.5.8l.3-.4c-.3-.4-1.2-1.5-1.7-.7.2.5.5.3.9.3zM272.1 73.6c.3-.2-.3-.6-.5-.5.2.1.2.3.5.5zM267.8 70.7c-.4.3-.1.8.2.5-.1-.2.1-.4-.2-.5zM290.9 88.5l.3-.4c-.6-.3-.9-.4-1.1-.7-.3.6.4.6.8 1.1zM262.4 67.2l-.4-.3c-.1.3-.4.6-.1.8.1.1.3-.4.5-.5zM265.1 78.9c-.3.4-.1.6.2.6.5-.3.1-.7-.2-.6zM260.6 69.2c-.2-.2-.3-.6-.6-.5-.3.6.2.9.6.5zM256.1 69.9c-.3.2-.1.4.1.5.2-.2.1-.3-.1-.5zM251.7 70.1c-.2.3-.1.5.2.7.4-.3.1-.5-.2-.7zM253.3 65.5c-.5-.5-1-1.4-1.7-1.6.5.9 1 1.2 1.7 1.6z"/></svg>